<svg width="64" height="64" viewBox="0 0 512 512">
    <rect width="512" height="512" rx="100" fill="#635BFF" />
    <path fill="#fff"
        d="M351.688 212.622c-13.23-7.19-31.122-10.78-52.664-10.78-24.38 
  0-41.652 4.093-52.664 12.278-11.013 8.187-16.519 
  20.078-16.519 35.676 0 15.81 5.506 27.92 16.519 
  36.319 11.234 8.187 28.727 12.278 52.664 
  12.278 21.321 0 39.435-3.59 54.342-10.78V334.5c-15.13 
  7.19-34.12 10.78-56.97 10.78-36.76 0-66.02-8.187-87.81-24.56C198.63 
  304.15 188 279.79 188 247.046c0-32.52 10.63-56.872 31.89-73.063 21.79-16.394 
  51.05-24.56 87.81-24.56 20.9 0 39.89 2.692 56.97 8.187v54.012z" />
</svg>